HIERARCHY
ROOT joint_Root
{
	OFFSET 0.0 0.0 0.0
	CHANNELS 6 Xposition Yposition Zposition Zrotation Xrotation Yrotation 
	JOINT Hips
	{
		OFFSET -0.726466 93.3139 -2.00062
		CHANNELS 6 Xposition Yposition Zposition Zrotation Xrotation Yrotation 
		JOINT Spine
		{
			OFFSET 15.7357 0.0 0.0
			CHANNELS 6 Xposition Yposition Zposition Zrotation Xrotation Yrotation 
			JOINT Chest
			{
				OFFSET 8.98455 -0.406207 0.0
				CHANNELS 6 Xposition Yposition Zposition Zrotation Xrotation Yrotation 
				JOINT Neck
				{
					OFFSET 16.3773 0.0 0.0
					CHANNELS 6 Xposition Yposition Zposition Zrotation Xrotation Yrotation 
					JOINT Head
					{
						OFFSET 6.45672 0.0 0.0
						CHANNELS 6 Xposition Yposition Zposition Zrotation Xrotation Yrotation 
						End Site
						{
							OFFSET 0.0 0.0 0.0
						}
					}
				}
				JOINT Shoulder_L
				{
					OFFSET 12.9942 -0.242716 4.98039
					CHANNELS 6 Xposition Yposition Zposition Zrotation Xrotation Yrotation 
					JOINT UpperArm_L
					{
						OFFSET 5.34809 0.0 0.0
						CHANNELS 6 Xposition Yposition Zposition Zrotation Xrotation Yrotation 
						JOINT LowerArm_L
						{
							OFFSET 24.3286 1.87007e-05 0.0
							CHANNELS 6 Xposition Yposition Zposition Zrotation Xrotation Yrotation 
							JOINT Hand_L
							{
								OFFSET 22.2916 0.0 0.0
								CHANNELS 6 Xposition Yposition Zposition Zrotation Xrotation Yrotation 
								End Site
								{
									OFFSET 0.0 0.0 0.0
								}
							}
						}
					}
				}
				JOINT Shoulder_R
				{
					OFFSET 12.9945 -0.242716 -4.98039
					CHANNELS 6 Xposition Yposition Zposition Zrotation Xrotation Yrotation 
					JOINT UpperArm_R
					{
						OFFSET -5.34813 0.0 0.0
						CHANNELS 6 Xposition Yposition Zposition Zrotation Xrotation Yrotation 
						JOINT LowerArm_R
						{
							OFFSET -24.3289 0.000322201 0.0
							CHANNELS 6 Xposition Yposition Zposition Zrotation Xrotation Yrotation 
							JOINT Hand_R
							{
								OFFSET -22.2915 -0.000108084 0.0
								CHANNELS 6 Xposition Yposition Zposition Zrotation Xrotation Yrotation 
								End Site
								{
									OFFSET 0.0 0.0 0.0
								}
							}
						}
					}
				}
			}
		}
		JOINT UpperLeg_L
		{
			OFFSET -2.19248 -6.46944 0.0
			CHANNELS 6 Xposition Yposition Zposition Zrotation Xrotation Yrotation 
			JOINT LowerLeg_L
			{
				OFFSET 39.0811 0.0 -1.23785e-05
				CHANNELS 6 Xposition Yposition Zposition Zrotation Xrotation Yrotation 
				JOINT Foot_L
				{
					OFFSET 40.9854 0.0 -1.26872e-05
					CHANNELS 6 Xposition Yposition Zposition Zrotation Xrotation Yrotation 
					JOINT Toes_L
					{
						OFFSET 11.7543 0.0 0.0
						CHANNELS 6 Xposition Yposition Zposition Zrotation Xrotation Yrotation 
						End Site
						{
							OFFSET 0.0 0.0 0.0
						}
					}
				}
			}
		}
		JOINT UpperLeg_R
		{
			OFFSET -2.19251 6.46944 0.0
			CHANNELS 6 Xposition Yposition Zposition Zrotation Xrotation Yrotation 
			JOINT LowerLeg_R
			{
				OFFSET -39.0811 -0.00228153 -0.0401928
				CHANNELS 6 Xposition Yposition Zposition Zrotation Xrotation Yrotation 
				JOINT Foot_R
				{
					OFFSET -40.9854 0.0 0.0
					CHANNELS 6 Xposition Yposition Zposition Zrotation Xrotation Yrotation 
					JOINT Toes_R
					{
						OFFSET -11.7543 0.0 0.0
						CHANNELS 6 Xposition Yposition Zposition Zrotation Xrotation Yrotation 
						End Site
						{
							OFFSET 0.0 0.0 0.0
						}
					}
				}
			}
		}
	}
}
MOTION
Frames:	5
Frame Time:	0.0333333
0.000000 0.000000 0.000000 0.000000 0.000000 -0.000000 -6.457140 80.348900 27.421000 -95.385500 3.851890 174.791000 15.735700 0.000005 -0.000001 97.041800 79.036000 -99.985100 8.984550 -0.406207 -0.000000 14.078100 2.495170 -6.197780 16.377300 -0.000001 -0.000001 4.536870 -1.741320 1.584690 6.456720 -0.000001 -0.000000 -2.369360 -4.484740 2.790160 12.994200 -0.242716 4.980390 -89.664700 -0.778729 -66.697800 5.348090 -0.000007 -0.000001 -57.950000 16.781100 -11.562400 24.328600 0.000019 0.000005 -5.203190 -2.340060 -65.857600 22.291600 -0.000001 0.000005 -2.630320 5.643520 -14.425900 12.994500 -0.242716 -4.980390 90.388500 -0.997559 -68.724100 -5.348130 -0.000001 -0.000004 -49.899600 33.949400 -13.967100 -24.328900 0.000322 -0.000009 -4.927620 -2.880490 -59.741500 -22.291500 -0.000108 -0.000004 5.802550 5.638930 -14.042400 -2.192480 -6.469440 -0.000000 167.471000 -5.492870 -40.607400 39.081100 -0.000007 -0.000012 -0.671541 0.311410 65.123100 40.985400 -0.000006 -0.000013 4.086530 -8.294030 -81.059900 11.754300 -0.000000 0.000003 -0.000033 -0.000397 -16.593000 -2.192510 6.469440 -0.000001 165.352000 4.962190 160.367000 -39.081100 -0.002282 -0.040193 0.385115 0.171035 114.142000 -40.985400 0.000008 0.000006 2.570230 -1.943490 -23.475200 -11.754300 -0.000006 -0.000006 -0.020795 -0.171655 -23.587800
0.000000 0.000000 0.000000 0.000000 0.000000 -0.000000 -6.390870 80.085000 18.007900 -93.974200 0.669800 174.315000 15.735700 0.000005 -0.000001 89.938300 79.106300 -91.832100 8.984550 -0.406207 -0.000000 14.022100 -0.126378 -3.773520 16.377300 -0.000001 -0.000001 4.525280 -1.592740 0.717915 6.456720 -0.000001 -0.000000 -1.462610 -2.601380 2.201410 12.994200 -0.242716 4.980390 -88.936100 -2.686800 -68.377300 5.348090 -0.000007 -0.000001 -57.098200 18.447100 -21.725000 24.328600 0.000019 0.000005 -3.993110 -1.396200 -70.728500 22.291600 -0.000001 0.000005 -2.576300 5.643130 -14.392000 12.994500 -0.242716 -4.980390 90.578300 -1.416680 -67.789700 -5.348130 -0.000001 -0.000004 -53.138200 35.383700 -6.300240 -24.328900 0.000322 -0.000009 1.025570 0.767993 -53.257300 -22.291500 -0.000108 -0.000004 3.032580 5.651820 -15.265800 -2.192480 -6.469440 -0.000000 169.687000 -5.802250 -32.724400 39.081100 -0.000007 -0.000012 -0.764721 0.353480 65.193700 40.985400 -0.000006 -0.000013 4.346760 -5.836280 -89.026300 11.754300 -0.000000 0.000003 -0.000115 -0.001161 -16.622000 -2.192510 6.469440 -0.000001 170.325000 7.754190 145.183000 -39.081100 -0.002282 -0.040193 0.043221 0.025484 122.670000 -40.985400 0.000008 0.000006 7.244890 -8.555040 -25.843200 -11.754300 -0.000006 -0.000006 -0.019442 -0.164176 -23.279700
0.000000 0.000000 0.000000 0.000000 0.000000 -0.000000 -5.852510 81.707600 7.665970 -91.439800 -4.168480 173.131000 15.735700 0.000005 -0.000001 79.480400 79.132900 -79.625200 8.984550 -0.406207 -0.000000 13.620900 -3.931930 0.179942 16.377300 -0.000001 -0.000001 4.378740 -1.852290 -0.224338 6.456720 -0.000001 -0.000000 -1.359140 -0.170213 1.442240 12.994200 -0.242716 4.980390 -88.362500 -4.500420 -69.978200 5.348090 -0.000007 -0.000001 -55.806400 17.587300 -27.810500 24.328600 0.000019 0.000005 -6.745740 -1.532440 -77.253200 22.291600 -0.000001 0.000005 -0.626804 5.646810 -14.709000 12.994500 -0.242716 -4.980390 90.281500 -0.632650 -65.995700 -5.348130 -0.000001 -0.000004 -52.155600 37.807600 -0.491663 -24.328900 0.000322 -0.000009 0.222610 0.159447 -54.921300 -22.291500 -0.000108 -0.000004 1.647180 5.652850 -15.292200 -2.192480 -6.469440 -0.000000 174.417000 -5.570640 -21.157800 39.081100 -0.000007 -0.000012 -0.209825 0.137240 56.813500 40.985400 -0.000006 -0.000013 7.177400 -2.654630 -93.074900 11.754300 -0.000000 0.000003 -1.038050 -1.318100 -15.762600 -2.192510 6.469440 -0.000001 177.362000 9.985120 133.873000 -39.081100 -0.002282 -0.040193 -0.190288 -0.116701 121.059000 -40.985400 0.000008 0.000006 8.659760 -12.537700 -33.537100 -11.754300 -0.000006 -0.000006 -0.019647 -0.165324 -23.326900
0.000000 0.000000 0.000000 0.000000 0.000000 -0.000000 -5.092440 85.133500 -3.416710 -87.765100 -9.325650 172.076000 15.735700 0.000005 -0.000001 70.691000 79.103400 -68.529600 8.984550 -0.406207 -0.000000 13.010500 -7.035830 5.130610 16.377300 -0.000001 -0.000001 5.017190 -2.583890 -0.562057 6.456720 -0.000001 -0.000000 -1.208620 1.694750 0.302903 12.994200 -0.242716 4.980390 -88.094600 -5.681950 -71.425600 5.348090 -0.000007 -0.000001 -55.643300 16.018400 -30.951900 24.328600 0.000019 0.000005 -6.868490 -1.027520 -81.530800 22.291600 -0.000001 0.000005 1.085610 5.653450 -15.346500 12.994500 -0.242716 -4.980390 90.271400 -0.549112 -63.709700 -5.348130 -0.000001 -0.000004 -53.146600 37.144600 5.131530 -24.328900 0.000322 -0.000009 -2.152200 -1.417800 -56.626500 -22.291500 -0.000108 -0.000004 1.512040 5.647240 -14.755500 -2.192480 -6.469440 -0.000000 -178.648000 -3.510310 -10.014800 39.081100 -0.000007 -0.000012 0.062688 -0.063997 44.406500 40.985400 -0.000006 -0.000013 7.760570 1.833880 -82.973600 11.754300 -0.000000 0.000003 -0.792798 -0.910366 -24.330200 -2.192510 6.469440 -0.000001 -175.897000 9.473760 127.505000 -39.081100 -0.002282 -0.040193 -0.134507 -0.051062 110.295000 -40.985400 0.000008 0.000006 5.686960 -12.822500 -43.064500 -11.754300 -0.000006 -0.000006 -0.017269 -0.151660 -22.764700
0.000000 0.000000 0.000000 0.000000 0.000000 -0.000000 -4.506160 89.278400 -14.446100 -85.173100 -12.968000 170.465000 15.735700 0.000005 -0.000001 63.853300 79.302300 -59.954800 8.984550 -0.406207 -0.000000 11.881200 -9.210390 8.768910 16.377300 -0.000001 -0.000001 5.805040 -3.015270 -0.560213 6.456720 -0.000001 -0.000000 -0.970067 2.740980 -0.190288 12.994200 -0.242716 4.980390 -87.744000 -6.986330 -72.052700 5.348090 -0.000007 -0.000001 -57.329900 15.214700 -31.685200 24.328600 0.000019 0.000005 -7.469300 -0.843682 -83.592600 22.291600 -0.000001 0.000005 2.135800 5.652890 -15.298300 12.994500 -0.242716 -4.980390 90.748400 -1.412820 -62.089300 -5.348130 -0.000001 -0.000004 -56.634200 33.015600 10.328200 -24.328900 0.000322 -0.000009 -1.582200 -1.023040 -57.099900 -22.291500 -0.000108 -0.000004 1.403540 5.644650 -14.523500 -2.192480 -6.469440 -0.000000 -172.539000 -3.733120 -2.884560 39.081100 -0.000007 -0.000012 0.022710 -0.034350 33.468200 40.985400 -0.000006 -0.000013 5.115400 8.255490 -62.391500 11.754300 -0.000000 0.000003 -0.162250 -0.578381 -41.118000 -2.192510 6.469440 -0.000001 -172.395000 7.609380 124.532000 -39.081100 -0.002282 -0.040193 0.031348 0.001451 93.139700 -40.985400 0.000008 0.000006 4.578130 -10.864900 -50.537400 -11.754300 -0.000006 -0.000006 -0.018193 -0.157066 -22.987000
